<?xml version="1.0" standalone="no"?>
<!DOCTYPE svg PUBLIC "-//W3C//DTD SVG 20010904//EN"
 "http://www.w3.org/TR/2001/REC-SVG-20010904/DTD/svg10.dtd">
<svg version="1.0" xmlns="http://www.w3.org/2000/svg"
 width="500.000000pt" height="500.000000pt" viewBox="0 0 500.000000 500.000000"
 preserveAspectRatio="xMidYMid meet">
<metadata>
Created by potrace 1.14, written by Peter Selinger 2001-2017
</metadata>
<g transform="translate(0.000000,500.000000) scale(0.100000,-0.100000)"
fill="#000000" stroke="none">
<path d="M1170 4181 c-335 -75 -577 -270 -725 -584 -131 -277 -138 -597 -18
-877 107 -249 269 -423 498 -535 133 -66 243 -94 391 -102 310 -16 583 96 793
323 54 59 72 73 77 61 3 -9 130 -393 283 -854 l277 -838 113 0 113 0 57 165
c155 447 297 838 302 832 4 -5 275 -755 351 -975 l10 -28 112 3 111 3 347
1045 c191 575 348 1048 348 1053 0 4 -71 7 -157 7 l-158 -1 -250 -749 c-137
-411 -252 -747 -254 -744 -2 2 -79 218 -171 481 l-167 478 -123 0 -123 0 -168
-475 c-92 -261 -170 -479 -172 -485 -2 -5 -116 328 -253 742 l-249 752 -155 1
-156 0 -11 -42 c-34 -122 -190 -303 -318 -370 -109 -56 -195 -79 -321 -85
-141 -7 -231 12 -357 75 -76 38 -107 61 -182 136 -49 50 -105 117 -124 149
-84 142 -122 327 -101 483 25 191 93 329 230 465 71 71 103 94 181 133 109 54
200 76 317 76 256 0 469 -112 599 -316 22 -34 47 -82 57 -108 l18 -46 149 0
c86 0 149 4 149 9 0 6 -12 43 -26 83 -120 333 -352 554 -676 644 -130 36 -344
43 -468 15z"/>
</g>
</svg>
